<?xml version="1.0" encoding="utf-8"?>
<!-- Generator: Adobe Illustrator 17.1.0, SVG Export Plug-In . SVG Version: 6.00 Build 0)  -->
<!DOCTYPE svg PUBLIC "-//W3C//DTD SVG 1.1//EN" "http://www.w3.org/Graphics/SVG/1.1/DTD/svg11.dtd">
<svg version="1.1" id="Layer_1" xmlns="http://www.w3.org/2000/svg" xmlns:xlink="http://www.w3.org/1999/xlink" x="0px" y="0px"
	 viewBox="0 0 820 522" enable-background="new 0 0 820 522" xml:space="preserve">
<path fill-rule="evenodd" clip-rule="evenodd" fill="#F05424" d="M538.6,313.3l2.3-1.1c-0.8-17.3-0.3-28.8,0.6-36.3
	c0.3-4.8,3.3-33.9,31.3-34.6c14-0.3,23.9,9.3,28.4,23.3c0.6,1.6,1.3,4.1,1.9,8c0.2,1.3,0.4,2.6,0.5,3.9c0,0,0,0,0,0
	c0.7,7.4,1.1,18.6,0.2,35.4l3,1.3c0.3,0.1,23.9,11.3,24.2,39.9c-3,4.3-6.4,8.2-10.2,11.7c-2.3,0.7-5.2,1.1-8.7,1.1
	c-0.6,0-1.1,0-1.7,0c-8.4,7.2-24.6,9.9-37.3,10c-0.3,0-0.5,0-0.8,0c-16.2,0-29.9-3.7-37.2-10c-0.6,0-1.2,0-1.8,0
	c-4.7,0-8.2-0.8-10.9-1.8c-2.9-2.8-5.6-5.7-8-8.9C513.6,325.2,538.3,313.5,538.6,313.3L538.6,313.3z M548.5,278.3
	c-0.8-0.1-1.6-0.2-2.4-0.4c-1,3.2-0.6,8.1,5.3,14.1C550,287.7,549,283,548.5,278.3L548.5,278.3z M580.8,265
	c-4.3,4.2-13.6,13-26.8,13.5c1.6,14.3,8.4,27.7,18.7,27.7c10.9,0,17.9-15.1,18.9-30.3C587.1,274.5,582.7,271.4,580.8,265L580.8,265z
	 M558.7,310.2c4.3,6.8,9.7,15,11.6,18.1h0.4l2,5.6l1.3-3.8l0,0c0.2-0.5,0.5-1,0.9-1.6c0.4-0.7,1-1.6,1.8-2.8
	c1.5-2.3,3.4-5.3,5.4-8.3c1.8-2.7,3.5-5.4,4.9-7.6c-0.5-0.7-1.1-1.9-1.7-3.6c-3.5,3.4-7.8,5.5-12.7,5.5c-4.8,0-8.9-1.9-12.3-5
	C559.8,308.4,559.1,309.5,558.7,310.2L558.7,310.2z M598.9,276.9c-0.6,0-1.3,0-2-0.1c-0.4,5.3-1.5,10.5-3.1,15.3
	C600.4,285.4,600.2,280.1,598.9,276.9L598.9,276.9z M592.3,311.7c-3.5,5.4-7.6,11.7-10.3,15.8l17.8-0.2L592.3,311.7L592.3,311.7z
	 M589.3,357.6c0.5,0,1.5,0.1,2.8,0.1c3.8,0,10.4-0.5,16.8-3v-3.4c-8.5,4.4-19.4,3.1-19.6,3.1V357.6L589.3,357.6z M569,370.5
	c1.4,0,2.7,0.1,4.1,0.1c1.1,0,2.2,0,3.4-0.1l14.8-37.7l-12.4,0.2l-6,16.9l-6.2-16.9l-12.5-0.2L569,370.5L569,370.5z M563.4,327.5
	l-10.2-15.9h0l-7.6,15.7L563.4,327.5L563.4,327.5z"/>
<linearGradient id="SVGID_1_" gradientUnits="userSpaceOnUse" x1="488.8069" y1="375.2089" x2="820.0002" y2="375.2089">
	<stop  offset="0" style="stop-color:#636972"/>
	<stop  offset="1" style="stop-color:#404347"/>
</linearGradient>
<path fill-rule="evenodd" clip-rule="evenodd" fill="url(#SVGID_1_)" d="M820,522h-75.6c-12.2-13.7-26.6-24.8-44.3-31.7
	c-16.8-6.6-29.9-17.1-37.3-34.2c-2.1-4.9-4.9-9.7-8.5-13.7c-5.3-5.9-11.4-11.2-17.4-16.5c-6.7-5.9-13-11.7-12.4-21.7
	c0.1-1-0.6-2.1-1-3.1c-3.7-8.8-2-14.5,5.9-19.9c-1.3-1.2-2.6-2.3-3.9-3.4c-36.7,28.9-84.4,23.2-113.2-7
	c-28.3-29.6-32.4-75.9-4.4-110.9c24.7-30.9,68.9-41.6,106-20.9c17.8,9.9,30.3,24.7,37.2,43.9c9.4,25.8,6.6,50.7-7.5,74.4
	c1.4,1.2,2.6,2.1,3.1,2.5c3.4-3.8,6-7.8,9.6-10.5c6.5-4.9,14.2-3.8,21.5-1.9c8.8,2.2,17.4,5.1,26.1,7.4c7.9,2.1,15.8,4,23.8,5.7
	c5.1,1.1,9,3.5,12.5,7.4c2.2,2.4,5.5,3.8,8.2,5.8c2.9,2.2,6.9,4,8.3,6.9c4,8.3,9.5,15.5,14.4,23.1c6.7,10.5,12.1,21.8,17.6,32.9
	c3.7,7.4,5.6,16,10.4,22.5c6.6,8.9,13.7,17.3,20.9,25.7V522L820,522z M648,332.7c10.5-43.8-15.2-87.2-57.6-96.9
	c-43.2-9.9-86.4,17.1-95.7,61.8c-8.5,41.4,18.1,82.1,58.5,91.9C591.6,399.9,637.4,377.3,648,332.7L648,332.7z"/>
<path fill="#818180" d="M356.8,349.5l0,0.3l-0.1,0.3c-0.1,0.3-2.7,6.8-15.4,6.4c-6.3,5.4-18.5,7.4-28.2,7.5c-0.2,0-0.4,0-0.6,0
	c-12.3,0-22.6-2.8-28.1-7.5c-0.5,0-0.9,0-1.3,0c-11.6,0-14-6.1-14.1-6.4l-0.1-0.3l0-0.3c-1.3-23.4,18-32.5,18.2-32.6l0.1-0.1l12-4.4
	l5.4,13l5.5-6.7h5.3l5.5,6.7l5.4-13l12.2,4.4C338.8,317,358.1,326.1,356.8,349.5L356.8,349.5z M312.8,330.6c-0.7,0-1.3,0.6-1.3,1.3
	c0,0.7,0.6,1.3,1.3,1.3c0.7,0,1.3-0.6,1.3-1.3C314.2,331.2,313.6,330.6,312.8,330.6L312.8,330.6z M312.8,337.9
	c-0.7,0-1.3,0.6-1.3,1.3c0,0.7,0.6,1.3,1.3,1.3c0.7,0,1.3-0.6,1.3-1.3C314.2,338.4,313.6,337.9,312.8,337.9L312.8,337.9z M337,320.6
	l-8.3-3l-6.5,15.6l-6.8-8.2v20.2h-5.1V325l-6.8,8.3l-6.5-15.6l-8.2,3c-1.3,0.6-16.7,8.4-15.8,28.3c0.5,0.7,2.7,3.5,9.9,3.6
	c-0.2-3.8-0.6-12.2-0.1-19.5l4.1,0.3c-0.5,7.9,0,17.4,0.2,20.1c4.7,4.2,14.6,6.7,26.1,6.6c11.2-0.1,21.1-2.6,25.6-6.6
	c0.2-2.8,0.7-12.5,0.1-20.3l4.1-0.3c0.5,7.3,0.2,15.8-0.1,19.6c7.1-0.1,9.4-2.8,9.9-3.6C353.6,329.1,338.3,321.3,337,320.6
	L337,320.6z M329,300.7c-3,8.5-8.5,14.9-16,14.9c-7.7,0-13.1-6.3-16-14.5c-5.4-5.3-5-9.4-3.8-11.8c-0.3-1.8-3.2-25.2,19.2-25.2
	c13,0,23.1,8.8,19.7,24.5C333.4,290.6,334.6,295,329,300.7L329,300.7z M319.2,280.6c-3.6,3.5-10.3,8.2-20.4,8.8
	c0.9,11.2,6.2,22.1,14.2,22.1c8.6,0,14.1-12.6,14.4-24.6C324.4,285.7,320.9,283.6,319.2,280.6L319.2,280.6z M139.9,353.1l0,0.4
	l-0.1,0.3c-0.1,0.3-2.9,7.5-16.5,7.5c-0.5,0-1,0-1.5,0c-7.4,6.3-21.7,8.7-32.9,8.8c-0.2,0-0.5,0-0.7,0c-14.4,0-26.4-3.2-32.9-8.8
	c-14.9,0.6-17.9-7.1-18-7.4l-0.1-0.3l0-0.4c-1.6-27.3,21-37.9,21.3-38l0.2-0.1l1.9-0.7c-0.7-15.3-0.2-25.4,0.5-32
	c0.3-4.2,2.9-29.7,27.6-30.3c12.4-0.3,21.1,8.2,25.1,20.4c0.6,1.4,1.2,3.6,1.7,7c0.2,1.1,0.3,2.2,0.4,3.4c0,0,0,0,0,0
	c0.7,6.5,0.9,16.4,0.2,31.3l2.6,1C118.8,315.2,141.4,325.8,139.9,353.1L139.9,353.1z M67.1,284.3c-0.7-0.1-1.4-0.2-2.1-0.4
	c-0.8,2.8-0.5,7.1,4.7,12.4C68.3,292.6,67.5,288.5,67.1,284.3L67.1,284.3z M95.6,272.7c-3.8,3.7-12,11.4-23.7,11.8
	c1.4,12.5,7.5,24.2,16.5,24.2c9.6,0,15.8-13.2,16.7-26.6C101.2,281,97.2,278.4,95.6,272.7L95.6,272.7z M96.2,311.4
	c-2.3,1.4-4.9,2.2-7.8,2.2c-2.7,0-5.2-0.7-7.4-1.9c1.9,2.1,4.4,4.3,7.5,5.5C91.6,315.9,94.2,313.6,96.2,311.4L96.2,311.4z
	 M95.4,318.6l8.6,6.2l-0.9-14.4c0,0-0.1-0.1-0.1-0.2C101.4,312.6,98.9,315.9,95.4,318.6L95.4,318.6z M73.8,310l-0.9,14.8l8.6-6.2
	C77.8,315.8,75.3,312.3,73.8,310L73.8,310z M111.6,283.2c-0.6,0-1.1,0-1.7-0.1c-0.4,4.6-1.3,9.2-2.8,13.4
	C112.9,290.6,112.8,286,111.6,283.2L111.6,283.2z M116.7,319.4l-8.4-3l1.1,18.1l-13.6-9.8l-4.3,4.6h-5.8l-3.9-4.9l-14.1,10.2
	l1.1-18.1l-8.4,3c-1.5,0.7-19.5,9.8-18.4,33c0.5,0.9,3.2,4.1,11.6,4.2c-0.3-4.5-0.7-14.2-0.2-22.7l4.8,0.3c-0.6,9.3,0,20.2,0.2,23.5
	c4.8,4.2,14.3,7,25.5,7.6l2-33.8h5.4l2,33.8c11.2-0.6,20.9-3.5,25.6-7.5c0.2-3.4,0.8-14.5,0.1-23.6l4.8-0.3
	c0.6,8.4,0.2,18.4-0.1,22.9c8.4-0.1,11-3.3,11.6-4.1C136.2,329.3,118.2,320.2,116.7,319.4L116.7,319.4z M97.6,356v-2.8
	c0.1,0,9.8,1.1,17.3-2.7v2.9c-5.7,2.3-11.5,2.6-14.9,2.6C99,356.1,98.1,356,97.6,356L97.6,356z M250.8,350.8l0,0.3l-0.1,0.3
	c-0.1,0.3-2.8,7.2-15.9,6.7c-6.5,5.7-19.2,7.8-29.1,7.9c-0.2,0-0.4,0-0.6,0c-12.7,0-23.4-2.9-29-7.9c-0.5,0-0.9,0-1.4,0
	c-12,0-14.4-6.4-14.6-6.7l-0.1-0.3l0-0.3c-1.4-24.5,18.6-34.1,18.8-34.2l0.2-0.1l1.7-0.6c-0.6-13.7-0.2-22.8,0.5-28.8
	c0.2-3.7,2.5-26.7,24.4-27.2c10.9-0.3,18.7,7.3,22.2,18.4c0.5,1.2,1,3.2,1.5,6.3c0.2,1,0.3,2,0.4,3c0,0,0,0,0,0
	c0.6,5.9,0.8,14.7,0.2,28.1l2.3,0.9C232.2,316.8,252.2,326.3,250.8,350.8L250.8,350.8z M186.5,289.1c-0.6-0.1-1.3-0.2-1.9-0.3
	c-0.8,2.6-0.5,6.4,4.1,11.1C187.6,296.5,186.9,292.8,186.5,289.1L186.5,289.1z M211.7,278.6c-3.4,3.3-10.6,10.2-20.9,10.6
	c1.3,11.2,6.6,21.8,14.6,21.8c8.5,0,14-11.9,14.8-23.9C216.6,286.1,213.2,283.7,211.7,278.6L211.7,278.6z M212.2,313.3
	c-2.1,1.2-4.3,1.9-6.9,1.9c-2.4,0-4.6-0.6-6.6-1.7c1.7,1.9,3.9,3.9,6.6,5C208.2,317.4,210.5,315.3,212.2,313.3L212.2,313.3z
	 M211.5,319.8l7.6,5.5l-0.8-12.9c0,0-0.1-0.1-0.1-0.1C216.9,314.4,214.6,317.4,211.5,319.8L211.5,319.8z M192.4,312.1l-0.8,13.3
	l7.6-5.6C196,317.3,193.8,314.2,192.4,312.1L192.4,312.1z M225.9,288c-0.5,0-1,0-1.5-0.1c-0.3,4.2-1.1,8.3-2.5,12
	C227,294.7,226.9,290.5,225.9,288L225.9,288z M230.3,320.6l-7.5-2.7l1,16.3l-15.3-11.2h-6.4l-15.3,11.2l1-16.2l-7.4,2.7
	c-1.3,0.6-17.2,8.8-16.3,29.6c0.5,0.8,2.8,3.7,10.3,3.7c-0.2-4-0.6-12.8-0.1-20.4l4.2,0.3c-0.5,8.3,0,18.1,0.2,21.1
	c4.8,4.3,14.8,6.9,26.4,6.9c0.2,0,0.4,0,0.6,0c11.5-0.1,21.8-2.8,26.5-6.9c0.2-2.9,0.7-13.1,0.1-21.2l4.2-0.3
	c0.5,7.6,0.2,16.6-0.1,20.6c7.4-0.1,9.7-3,10.2-3.7C247.6,329.4,231.7,321.2,230.3,320.6L230.3,320.6z M205.4,352.7
	c-1.2,0-2.1-1-2.1-2.1c0-1.2,0.9-2.1,2.1-2.1c1.2,0,2.1,1,2.1,2.1C207.5,351.8,206.6,352.7,205.4,352.7L205.4,352.7z M205.4,337.6
	c-1.2,0-2.1-1-2.1-2.1s0.9-2.1,2.1-2.1c1.2,0,2.1,1,2.1,2.1S206.6,337.6,205.4,337.6L205.4,337.6z M434.7,313.5c0,0-4,3.7-7.7,2.8
	c0,0,0.5,2.9,3.7,4.1c0,0-1,1-2.9,1.5c2,1,15,8.5,14,25.7l0,0.2l-0.1,0.2c-0.1,0.2-2.1,5.4-12,5c-5,4.3-14.5,5.9-22.1,5.9
	c-0.2,0-0.3,0-0.5,0c-9.6,0-17.7-2.2-22-5.9c-0.4,0-0.7,0-1.1,0c-9.1,0-11-4.8-11-5.1l-0.1-0.2l0-0.2c-1-17.2,12.1-24.7,14-25.7
	c-1.9-0.5-2.9-1.5-2.9-1.5c3.2-1.2,3.7-4.1,3.7-4.1c-3.7,0.9-7.7-2.8-7.7-2.8c7.2-0.7,7.9-5.3,7.9-5.3c-2,0.5-4.4-0.9-4.4-0.9
	c5.1-1.2,5.4-7.4,5.4-7.4c0,0,0.5-20.5,18.5-21c10.5-0.3,17.1,9,18.2,20.9c0,0,0,0,0,0c0,0.6,0.6,6.4,5.4,7.5c0,0-2.3,1.4-4.4,0.9
	C426.8,308.3,427.5,312.8,434.7,313.5L434.7,313.5z M393,300.4c-0.4,0-0.8-0.1-1.3-0.1c-0.7,1.9-0.7,5,3,8.8
	C393.9,306.4,393.3,303.4,393,300.4L393,300.4z M414.2,300.5c-0.3-0.3-1.5-5.7-2-7.5c-1.1,1.1-2.7,7.4-2.9,7.5
	c-0.7,0.1-5.2,0.7-13,0.2c0.9,8.6,5,16.8,11.1,16.8c6.2,0,10.2-8.2,11.1-16.9C416.3,300.8,414.5,300.8,414.2,300.5L414.2,300.5z
	 M399.6,320.7c2,2.1,4.8,3.3,7.7,3.3c2.9,0,5.7-1.2,7.7-3.4c-0.3-0.7-0.7-1.6-0.9-2.5c-1.9,1.6-4.2,2.6-6.8,2.6c-2.7,0-5-1-6.9-2.6
	C400.3,319.1,399.9,320,399.6,320.7L399.6,320.7z M423,300.2c-0.4,0-0.8,0.1-1.2,0.1c-0.3,3.1-0.9,6.1-1.8,8.8
	C423.7,305.3,423.7,302.2,423,300.2L423,300.2z M426.2,324.7l-4.6-1.7c-0.4,0.7-0.9,1.3-1.4,1.9l-1.2-1c0.4-0.4,0.7-0.9,1.1-1.4
	l-1.8-0.7c-2.6,3.4-6.6,5.4-10.9,5.4c-4.4,0-8.4-2-11.1-5.4l-1.6,0.6c0.2,0.2,0.3,0.5,0.5,0.7l-1.3,1c-0.3-0.4-0.5-0.7-0.8-1.1
	l-4.7,1.7c-0.9,0.5-11.4,5.8-12.3,19.2c0.3,0.4,0.8,0.8,1.5,1.2l-0.8,1.4c-0.3-0.2-0.5-0.4-0.8-0.5c0,0.4,0,0.7,0,1.1
	c0.4,0.6,2.1,2.8,7.8,2.8c-0.2-3-0.5-9.6-0.1-15.4l3.2,0.2c-0.4,6.3,0,13.8,0.2,15.9c3.7,3.3,11.5,5.3,20.4,5.2
	c8.8-0.1,16.5-2.1,20.1-5.2c0.1-2.2,0.5-9.9,0.1-16l3.2-0.2c0.4,5.7,0.1,12.5,0,15.5c5.6-0.1,7.4-2.2,7.7-2.8c0-0.4,0-0.7,0-1.1
	c-0.2,0.2-0.5,0.4-0.8,0.5l-0.8-1.4c0.7-0.4,1.2-0.9,1.5-1.2C437.6,330.5,427.2,325.2,426.2,324.7L426.2,324.7z M414.2,327.6
	c0.9-0.5,1.8-1,2.6-1.6l1,1.3c-0.9,0.7-1.8,1.3-2.8,1.8L414.2,327.6L414.2,327.6z M408.4,329.2c1-0.1,2-0.2,3-0.5l0.4,1.5
	c-1.1,0.3-2.2,0.5-3.3,0.6L408.4,329.2L408.4,329.2z M401.9,329.9l0.5-1.5c1,0.3,2,0.6,3,0.7l-0.2,1.6
	C404,330.5,402.9,330.3,401.9,329.9L401.9,329.9z M396.1,326.6l1.1-1.2c0.8,0.7,1.6,1.3,2.5,1.8l-0.8,1.4
	C397.8,328,396.9,327.3,396.1,326.6L396.1,326.6z M378.8,347.5l0.6-1.5c0.9,0.3,1.9,0.6,2.9,0.7l-0.2,1.6
	C380.9,348.1,379.8,347.9,378.8,347.5L378.8,347.5z M435.8,347.5c-1,0.4-2.1,0.6-3.3,0.8l-0.2-1.6c1.1-0.1,2-0.4,2.9-0.7
	L435.8,347.5L435.8,347.5z M779.7,351.5l-0.3-2c1.4-0.2,2.6-0.5,3.7-0.9l0.7,1.9C782.6,350.9,781.2,351.3,779.7,351.5L779.7,351.5z
	 M757.4,327.2l-0.9-1.8c1.2-0.6,2.3-1.3,3.3-2.1l1.3,1.6C759.8,325.8,758.6,326.5,757.4,327.2L757.4,327.2z M749.1,329.4l-0.1-2
	c1.3-0.1,2.6-0.3,3.8-0.6l0.5,2C752,329,750.6,329.3,749.1,329.4L749.1,329.4z M744.9,329.2c-1.4-0.2-2.8-0.5-4.2-1l0.7-1.9
	c1.2,0.4,2.5,0.7,3.8,0.9L744.9,329.2L744.9,329.2z M782.5,307.6c0,0-5.1,4.6-9.9,3.5c0,0,0.7,3.7,4.8,5.2c0,0-1.3,1.3-3.7,1.9
	c2.5,1.3,19.1,10.7,17.8,32.4l0,0.3l-0.1,0.3c-0.1,0.3-2.7,6.8-15.3,6.4c-6.3,5.4-18.5,7.4-28.1,7.5c-0.2,0-0.4,0-0.6,0
	c-0.3,0-0.6,0-0.9,0c-0.5-0.4-1.1-0.9-1.5-1.4c-0.9-1-1.9-2-2.8-2.8c1.9,0.1,3.8,0.2,5.8,0.2c11.2-0.1,21-2.6,25.6-6.6
	c0.2-2.8,0.7-12.5,0.1-20.2l4.1-0.3c0.5,7.3,0.2,15.8-0.1,19.6c7.1-0.1,9.4-2.8,9.9-3.6c0-0.5,0-0.9,0-1.4c-0.3,0.2-0.6,0.4-1,0.7
	l-1.1-1.7c0.9-0.6,1.6-1.1,2-1.6c-1.1-16.9-14.5-23.6-15.7-24.2l-5.9-2.1c-0.5,0.8-1.1,1.6-1.8,2.4l-1.5-1.3
	c0.5-0.6,0.9-1.2,1.4-1.8l-2.3-0.8c-3.4,4.3-8.4,6.9-13.9,6.9c-5.6,0-10.7-2.5-14.1-6.8l-2.1,0.8c0.2,0.3,0.4,0.6,0.6,0.9l-1.6,1.2
	c-0.3-0.4-0.7-0.9-1-1.4l-5.9,2.2c-1.2,0.6-14.6,7.3-15.7,24.2c0.4,0.4,1.1,1,2,1.6l-1.1,1.7c-0.4-0.2-0.7-0.4-1-0.7
	c0,0.4,0,0.8,0,1.3c-0.8-0.2-1.6-0.4-2.4-0.6c-0.6-0.2-1.1-0.3-1.7-0.5c-0.2-20.5,15.5-29.4,17.9-30.6c-2.4-0.6-3.7-1.9-3.7-1.9
	c4.1-1.5,4.8-5.2,4.8-5.2c-4.8,1.1-9.9-3.5-9.9-3.5c9.2-0.9,10.1-6.6,10.1-6.6c-2.6,0.7-5.6-1.1-5.6-1.1c6.5-1.5,6.9-9.4,6.9-9.4
	s0.6-25.9,23.6-26.5c13.4-0.3,21.8,11.4,23.2,26.4c0,0,0,0,0,0c0.1,0.8,0.8,8,6.9,9.4c0,0-2.9,1.8-5.6,1.1
	C772.4,301,773.4,306.7,782.5,307.6L782.5,307.6z M729.4,291.1c-0.5-0.1-1.1-0.1-1.6-0.2c-0.9,2.4-0.9,6.3,3.8,11.1
	C730.5,298.6,729.8,294.8,729.4,291.1L729.4,291.1z M747.6,320.8c3.8,0,7.3-1.6,9.8-4.3c-0.4-0.9-0.9-2.1-1.1-3.2
	c-2.5,2.1-5.4,3.3-8.7,3.3c-3.4,0-6.3-1.2-8.8-3.3c-0.2,1.2-0.7,2.4-1.2,3.3C740.3,319.3,743.8,320.8,747.6,320.8L747.6,320.8z
	 M756.4,291.2c-0.3-0.3-1.9-7.2-2.5-9.4c-1.4,1.3-3.4,9.4-3.7,9.4c-0.9,0.2-6.7,0.9-16.6,0.2c1.1,10.9,6.3,21.2,14.1,21.2
	c7.9,0,13.1-10.4,14.1-21.3C759.1,291.5,756.8,291.5,756.4,291.2L756.4,291.2z M767.6,290.8c-0.5,0.1-1,0.1-1.6,0.2
	c-0.3,3.9-1.1,7.7-2.4,11.1C768.6,297.1,768.5,293.2,767.6,290.8L767.6,290.8z M715.8,349.5l-0.3,2c-1.5-0.2-2.9-0.5-4.2-1l0.7-1.9
	C713.2,349,714.4,349.3,715.8,349.5L715.8,349.5z M721.6,334.3c-0.5,7.1-0.1,15.4,0.1,19c-1.4-0.3-2.8-0.6-4.1-1
	c-0.2-4.1-0.5-11.7-0.1-18.3L721.6,334.3L721.6,334.3z M737.8,324.8l-1,1.7c-1.2-0.7-2.4-1.5-3.5-2.5l1.4-1.5
	C735.7,323.4,736.7,324.1,737.8,324.8L737.8,324.8z M486.4,356c-0.1,0-0.3,0-0.4,0c-7.9,0-14.6-1.8-18.2-4.9c-8.2,0.3-9.9-4-10-4.1
	l-0.1-0.2l0-0.2c-0.9-15.2,11.6-21.1,11.8-21.2l0.1,0l7.8-2.8l3.5,8.4l1.6-1.9c0.2,1.1,0.4,2.2,0.7,3.3l-3,3.7l-4.2-10.2l-5.3,2
	c-0.8,0.4-10.8,5.5-10.2,18.4c0.3,0.5,1.8,2.3,6.4,2.3c-0.1-2.5-0.4-7.9-0.1-12.7l2.6,0.2c-0.3,5.2,0,11.2,0.1,13.1
	c2.7,2.4,7.9,3.9,14.1,4.2l0.9-15.6c1.1,3.9,2.5,7.7,4.1,11.3l0.2,4.3c0.6,0,1.1-0.1,1.7-0.1c0.4,0.8,0.8,1.7,1.3,2.5
	C490,355.9,488.1,356,486.4,356L486.4,356z M477,307.5c0.4,4.6,1.9,9.1,4.3,11.8c0.1,1.3,0.2,2.6,0.4,3.8c-2.6-1.6-4.6-4.7-5.8-8.2
	c-3.3-3.3-3.1-5.9-2.4-7.5c0,0,0,0,0,0c0,0-2.3-14.7,10.1-16.3c-1.2,5.1-2,10.3-2.3,15.7C479.9,307.2,478.5,307.4,477,307.5
	L477,307.5z M681.6,314.8c0,0-3.4,3.2-6.6,2.4c0,0,0.5,2.5,3.2,3.5c0,0-0.9,0.9-2.5,1.3c1.7,0.9,12.8,7.3,12,22.1
	c-0.9-0.3-1.8-0.5-2.7-0.8c0-0.2,0-0.4,0-0.5c-0.2,0.1-0.3,0.2-0.5,0.4c-0.1,0-0.1,0-0.2-0.1l-0.6-1c0.6-0.4,1-0.8,1.3-1.1
	c-0.8-11.5-9.7-16.1-10.5-16.5l-3.9-1.5c-0.4,0.6-0.8,1.1-1.2,1.6l-1-0.9c0.3-0.4,0.6-0.8,0.9-1.2l-1.6-0.6
	c-1.2,1.6-2.7,2.8-4.5,3.6c0.2-1.1,0.3-2.3,0.4-3.5c0.5-0.3,0.9-0.7,1.3-1.2c-0.3-0.6-0.6-1.4-0.7-2.2c-0.1,0.1-0.2,0.2-0.3,0.3
	c0.1-1.4,0.2-2.7,0.2-4.1c2-2.8,3.4-6.9,3.8-11.2c-1.8,0.1-3.4,0.2-3.6-0.1c-0.1-0.1-0.5-1.8-0.9-3.4c-0.7-5.2-1.8-10.2-3.3-15.1
	c8.1,0.6,13.2,8.3,14.1,18c0,0,0,0,0,0c0,0.5,0.5,5.5,4.6,6.4c0,0-2,1.2-3.7,0.8C674.8,310.2,675.5,314.2,681.6,314.8L681.6,314.8z
	 M671.6,303.3c-0.3,0-0.7,0.1-1.1,0.1c-0.2,2.6-0.8,5.2-1.6,7.6C672.2,307.6,672.2,305,671.6,303.3L671.6,303.3z M667.1,326.6
	c-0.8,0.6-1.6,1.1-2.4,1.5l-0.6-1.2c0.8-0.4,1.5-0.9,2.2-1.4L667.1,326.6L667.1,326.6z M678.3,332.7c0.2,2.9,0.2,6.1,0.1,8.8
	c-0.5-0.1-1.1-0.3-1.6-0.4c-0.4-0.1-0.8-0.2-1.1-0.3c0-2.5,0-5.3-0.1-7.9L678.3,332.7L678.3,332.7z"/>
</svg>
